<mxfile host="app.diagrams.net" modified="2021-08-31T05:53:46.779Z" agent="5.0 (Macintosh; Intel Mac OS X 10_15_7) AppleWebKit/537.36 (KHTML, like Gecko) Chrome/92.0.4515.159 Safari/537.36" etag="pxJkdepgZrWBogIW3JE4" version="14.9.9" type="github">
  <diagram id="prtHgNgQTEPvFCAcTncT" name="Page-1">
    <mxGraphModel dx="1188" dy="662" grid="1" gridSize="10" guides="1" tooltips="1" connect="1" arrows="1" fold="1" page="1" pageScale="1" pageWidth="827" pageHeight="1169" math="0" shadow="0">
      <root>
        <mxCell id="0" />
        <mxCell id="1" parent="0" />
        <mxCell id="idPKvGF-PwyJa8yn1uXD-2" value="" style="rounded=0;whiteSpace=wrap;html=1;fillColor=none;" vertex="1" parent="1">
          <mxGeometry x="80" y="100" width="160" height="270" as="geometry" />
        </mxCell>
        <mxCell id="idPKvGF-PwyJa8yn1uXD-3" value="schema: public" style="text;html=1;strokeColor=none;fillColor=none;align=center;verticalAlign=middle;whiteSpace=wrap;rounded=0;" vertex="1" parent="1">
          <mxGeometry x="80" y="100" width="110" height="30" as="geometry" />
        </mxCell>
        <mxCell id="idPKvGF-PwyJa8yn1uXD-4" value="table:&amp;nbsp; ai_output" style="rounded=0;whiteSpace=wrap;html=1;fillColor=none;" vertex="1" parent="1">
          <mxGeometry x="100" y="160" width="120" height="30" as="geometry" />
        </mxCell>
        <mxCell id="idPKvGF-PwyJa8yn1uXD-5" value="table:&amp;nbsp; industry_index" style="rounded=0;whiteSpace=wrap;html=1;fillColor=none;" vertex="1" parent="1">
          <mxGeometry x="100" y="260" width="120" height="30" as="geometry" />
        </mxCell>
        <mxCell id="idPKvGF-PwyJa8yn1uXD-6" value="table:&amp;nbsp;trend_output" style="rounded=0;whiteSpace=wrap;html=1;fillColor=none;" vertex="1" parent="1">
          <mxGeometry x="100" y="210" width="120" height="30" as="geometry" />
        </mxCell>
        <mxCell id="idPKvGF-PwyJa8yn1uXD-9" value="" style="endArrow=none;dashed=1;html=1;dashPattern=1 3;strokeWidth=2;" edge="1" parent="1">
          <mxGeometry width="50" height="50" relative="1" as="geometry">
            <mxPoint x="159.5" y="350" as="sourcePoint" />
            <mxPoint x="159.5" y="310" as="targetPoint" />
          </mxGeometry>
        </mxCell>
        <mxCell id="idPKvGF-PwyJa8yn1uXD-16" value="" style="group" vertex="1" connectable="0" parent="1">
          <mxGeometry x="414" y="100" width="356" height="50" as="geometry" />
        </mxCell>
        <mxCell id="idPKvGF-PwyJa8yn1uXD-12" value="" style="rounded=0;whiteSpace=wrap;html=1;fillColor=none;" vertex="1" parent="idPKvGF-PwyJa8yn1uXD-16">
          <mxGeometry width="356" height="50" as="geometry" />
        </mxCell>
        <mxCell id="idPKvGF-PwyJa8yn1uXD-13" value="schema: user1" style="text;html=1;strokeColor=none;fillColor=none;align=center;verticalAlign=middle;whiteSpace=wrap;rounded=0;" vertex="1" parent="idPKvGF-PwyJa8yn1uXD-16">
          <mxGeometry width="110" height="30" as="geometry" />
        </mxCell>
        <mxCell id="idPKvGF-PwyJa8yn1uXD-14" value="table:&amp;nbsp; ai_output" style="rounded=0;whiteSpace=wrap;html=1;fillColor=none;" vertex="1" parent="idPKvGF-PwyJa8yn1uXD-16">
          <mxGeometry x="156" y="10" width="120" height="30" as="geometry" />
        </mxCell>
        <mxCell id="idPKvGF-PwyJa8yn1uXD-15" value="" style="endArrow=none;dashed=1;html=1;dashPattern=1 3;strokeWidth=2;" edge="1" parent="idPKvGF-PwyJa8yn1uXD-16">
          <mxGeometry width="50" height="50" relative="1" as="geometry">
            <mxPoint x="306" y="30" as="sourcePoint" />
            <mxPoint x="346" y="30" as="targetPoint" />
          </mxGeometry>
        </mxCell>
        <mxCell id="idPKvGF-PwyJa8yn1uXD-18" value="" style="group" vertex="1" connectable="0" parent="1">
          <mxGeometry x="414" y="180" width="356" height="50" as="geometry" />
        </mxCell>
        <mxCell id="idPKvGF-PwyJa8yn1uXD-19" value="" style="rounded=0;whiteSpace=wrap;html=1;fillColor=none;" vertex="1" parent="idPKvGF-PwyJa8yn1uXD-18">
          <mxGeometry width="356" height="50" as="geometry" />
        </mxCell>
        <mxCell id="idPKvGF-PwyJa8yn1uXD-20" value="schema: user2" style="text;html=1;strokeColor=none;fillColor=none;align=center;verticalAlign=middle;whiteSpace=wrap;rounded=0;" vertex="1" parent="idPKvGF-PwyJa8yn1uXD-18">
          <mxGeometry width="110" height="30" as="geometry" />
        </mxCell>
        <mxCell id="idPKvGF-PwyJa8yn1uXD-21" value="table:&amp;nbsp; trend_output" style="rounded=0;whiteSpace=wrap;html=1;fillColor=none;" vertex="1" parent="idPKvGF-PwyJa8yn1uXD-18">
          <mxGeometry x="156" y="10" width="120" height="30" as="geometry" />
        </mxCell>
        <mxCell id="idPKvGF-PwyJa8yn1uXD-22" value="" style="endArrow=none;dashed=1;html=1;dashPattern=1 3;strokeWidth=2;" edge="1" parent="idPKvGF-PwyJa8yn1uXD-18">
          <mxGeometry width="50" height="50" relative="1" as="geometry">
            <mxPoint x="306" y="30" as="sourcePoint" />
            <mxPoint x="346" y="30" as="targetPoint" />
          </mxGeometry>
        </mxCell>
        <mxCell id="idPKvGF-PwyJa8yn1uXD-24" value="" style="endArrow=classic;html=1;" edge="1" parent="1" target="idPKvGF-PwyJa8yn1uXD-12">
          <mxGeometry width="50" height="50" relative="1" as="geometry">
            <mxPoint x="239" y="126" as="sourcePoint" />
            <mxPoint x="400" y="340" as="targetPoint" />
          </mxGeometry>
        </mxCell>
        <mxCell id="idPKvGF-PwyJa8yn1uXD-25" value="grant write to some tables" style="edgeLabel;html=1;align=center;verticalAlign=middle;resizable=0;points=[];" vertex="1" connectable="0" parent="idPKvGF-PwyJa8yn1uXD-24">
          <mxGeometry x="-0.2901" y="5" relative="1" as="geometry">
            <mxPoint x="24" y="-6" as="offset" />
          </mxGeometry>
        </mxCell>
        <mxCell id="idPKvGF-PwyJa8yn1uXD-26" value="" style="endArrow=classic;html=1;" edge="1" parent="1" target="idPKvGF-PwyJa8yn1uXD-19">
          <mxGeometry width="50" height="50" relative="1" as="geometry">
            <mxPoint x="240" y="205" as="sourcePoint" />
            <mxPoint x="300" y="200" as="targetPoint" />
          </mxGeometry>
        </mxCell>
        <mxCell id="idPKvGF-PwyJa8yn1uXD-27" value="grant write to some tables" style="edgeLabel;html=1;align=center;verticalAlign=middle;resizable=0;points=[];" vertex="1" connectable="0" parent="1">
          <mxGeometry x="329.9967416261018" y="125.00080406822799" as="geometry">
            <mxPoint x="-10" y="67" as="offset" />
          </mxGeometry>
        </mxCell>
        <mxCell id="idPKvGF-PwyJa8yn1uXD-29" value="" style="group" vertex="1" connectable="0" parent="1">
          <mxGeometry x="414" y="260" width="356" height="50" as="geometry" />
        </mxCell>
        <mxCell id="idPKvGF-PwyJa8yn1uXD-30" value="" style="rounded=0;whiteSpace=wrap;html=1;fillColor=none;" vertex="1" parent="idPKvGF-PwyJa8yn1uXD-29">
          <mxGeometry width="356" height="50" as="geometry" />
        </mxCell>
        <mxCell id="idPKvGF-PwyJa8yn1uXD-31" value="schema: user3" style="text;html=1;strokeColor=none;fillColor=none;align=center;verticalAlign=middle;whiteSpace=wrap;rounded=0;" vertex="1" parent="idPKvGF-PwyJa8yn1uXD-29">
          <mxGeometry width="110" height="30" as="geometry" />
        </mxCell>
        <mxCell id="idPKvGF-PwyJa8yn1uXD-32" value="table:&amp;nbsp; industry_index" style="rounded=0;whiteSpace=wrap;html=1;fillColor=none;" vertex="1" parent="idPKvGF-PwyJa8yn1uXD-29">
          <mxGeometry x="156" y="10" width="120" height="30" as="geometry" />
        </mxCell>
        <mxCell id="idPKvGF-PwyJa8yn1uXD-33" value="" style="endArrow=none;dashed=1;html=1;dashPattern=1 3;strokeWidth=2;" edge="1" parent="idPKvGF-PwyJa8yn1uXD-29">
          <mxGeometry width="50" height="50" relative="1" as="geometry">
            <mxPoint x="306" y="30" as="sourcePoint" />
            <mxPoint x="346" y="30" as="targetPoint" />
          </mxGeometry>
        </mxCell>
        <mxCell id="idPKvGF-PwyJa8yn1uXD-34" value="" style="endArrow=classic;html=1;" edge="1" parent="1" target="idPKvGF-PwyJa8yn1uXD-30">
          <mxGeometry width="50" height="50" relative="1" as="geometry">
            <mxPoint x="239" y="286" as="sourcePoint" />
            <mxPoint x="360" y="215" as="targetPoint" />
          </mxGeometry>
        </mxCell>
        <mxCell id="idPKvGF-PwyJa8yn1uXD-36" value="grant write to some tables" style="edgeLabel;html=1;align=center;verticalAlign=middle;resizable=0;points=[];" vertex="1" connectable="0" parent="idPKvGF-PwyJa8yn1uXD-34">
          <mxGeometry x="-0.0093" relative="1" as="geometry">
            <mxPoint x="-6" y="-11" as="offset" />
          </mxGeometry>
        </mxCell>
        <mxCell id="idPKvGF-PwyJa8yn1uXD-37" value="&lt;span style=&quot;font-size: 11px ; background-color: rgb(255 , 255 , 255)&quot;&gt;grant read to all tables&lt;/span&gt;" style="text;html=1;align=center;verticalAlign=middle;resizable=0;points=[];autosize=1;strokeColor=none;" vertex="1" parent="1">
          <mxGeometry x="260" y="125" width="130" height="20" as="geometry" />
        </mxCell>
        <mxCell id="idPKvGF-PwyJa8yn1uXD-38" value="&lt;span style=&quot;font-size: 11px ; text-align: center ; background-color: rgb(255 , 255 , 255)&quot;&gt;grant read to all tables&lt;/span&gt;" style="text;whiteSpace=wrap;html=1;" vertex="1" parent="1">
          <mxGeometry x="254" y="200" width="160" height="30" as="geometry" />
        </mxCell>
        <mxCell id="idPKvGF-PwyJa8yn1uXD-39" value="&lt;span style=&quot;font-size: 11px ; text-align: center ; background-color: rgb(255 , 255 , 255)&quot;&gt;grant read to all tables&lt;/span&gt;" style="text;whiteSpace=wrap;html=1;" vertex="1" parent="1">
          <mxGeometry x="260" y="280" width="160" height="30" as="geometry" />
        </mxCell>
        <mxCell id="idPKvGF-PwyJa8yn1uXD-41" value="" style="endArrow=none;dashed=1;html=1;dashPattern=1 3;strokeWidth=2;" edge="1" parent="1">
          <mxGeometry width="50" height="50" relative="1" as="geometry">
            <mxPoint x="591.5799999999999" y="359.9999999999999" as="sourcePoint" />
            <mxPoint x="591.5799999999999" y="319.9999999999999" as="targetPoint" />
          </mxGeometry>
        </mxCell>
      </root>
    </mxGraphModel>
  </diagram>
</mxfile>
